<svg t="1692588535231" class="icon" viewBox="0 0 1024 1024" version="1.1" xmlns="http://www.w3.org/2000/svg" p-id="22698" xmlns:xlink="http://www.w3.org/1999/xlink" width="200" height="200"><path d="M314.445 652.986l-190.73 190.73c-15.62 15.62-15.62 40.947 0 56.568 15.622 15.621 40.948 15.621 56.57 0l190.729-190.73C433.062 759.268 511.809 789 597.5 789 797.703 789 960 626.703 960 426.5S797.703 64 597.5 64 235 226.297 235 426.5c0 85.691 29.733 164.438 79.445 226.486zM597.5 709C441.48 709 315 582.52 315 426.5 315 270.48 441.48 144 597.5 144 753.52 144 880 270.48 880 426.5 880 582.52 753.52 709 597.5 709z" fill="#000000" p-id="22699"></path></svg>